<svg xmlns="http://www.w3.org/2000/svg" viewBox="0 0 3001.32 1317.35"><defs><style>.cls-1{fill:#eee;}</style></defs><g id="Layer_2" data-name="Layer 2"><g id="Layer_1-2" data-name="Layer 1"><path d="M339.75,472.46c-5.76-3.92-86.78-53.78-107-93.87-6.58-13.08-14.29-27.32-20.06-47.29,7.24-21.3,25.54-39.65,50.1-52.75,27.86-14.86,39.08-56,43.6-85.23,1.11-.33,2.23-.63,3.37-.94-.08,24.91.8,59.33-16.14,75.07-37.33,34.71-55.43,73.71-18.31,110.58s69.6,55.79,77.51,64.33,11.24,12.93,6.56,21.34S345.52,476.38,339.75,472.46Z"/><path d="M589.52,403c-7.79.44-14.85-14-18.23-39.21-2.08-15.56-19.51-49.37-29.24-88.32,6.62-5.56,16.89-10.24,30-13.61l1.08-.28q4.17,18.74,10,41.8c12.28,48.65,17.52,73.42,16.7,86.18C599.07,400.86,593.17,402.82,589.52,403Z"/><path class="cls-1" d="M607.86,853.08a343.74,343.74,0,0,1-65.41,40.61,339.5,339.5,0,0,1-77.76,25.7q-42.24,8.72-94.75,8.73-79.32,0-147.3-28.81T105.16,820.59Q55.66,770.7,27.83,702.78T0,557.69v-2.07q0-77.14,27.83-144.56a371.64,371.64,0,0,1,77.33-118.34q49.5-50.93,118.51-80.27t152.45-29.33q50.47,0,92.18,8.24T544,214a328.28,328.28,0,0,1,62.83,34.95,426,426,0,0,1,53.56,45.25L559.45,410.48q-42.23-38.1-86-59.73t-98.36-21.63q-45.31,0-83.95,17.5A198.66,198.66,0,0,0,224.7,395a225.32,225.32,0,0,0-43.26,71.56Q166,507.25,166,553.56v2.06q0,46.35,15.44,87.52t42.75,72.06a198.94,198.94,0,0,0,65.92,48.91q38.63,18,85,18,61.79,0,104.54-22.65t85-61.8L665.55,799.61A525.16,525.16,0,0,1,607.86,853.08Z"/><path class="cls-1" d="M1328.29,916.12l-65.92-162H957.47l-65.9,162H729.85l309-726h146.27l309,726ZM1109.93,380.33l-95.8,233.79h191.58Z"/><path class="cls-1" d="M2311,700.2a373,373,0,0,1-79.8,118.33q-51,51-121.48,80.27t-153.93,29.32q-83.38,0-153.4-29.32t-121-79.24q-51-49.89-79.26-117.29t-28.32-144.58v-2.07q0-77.14,28.83-144.56a373.36,373.36,0,0,1,79.78-118.34q51-50.93,121.5-80.27t153.93-29.33q83.39,0,153.4,29.33t121,79.24A354.52,354.52,0,0,1,2311.51,409q28.32,67.41,28.31,144.56v2.06Q2339.82,632.81,2311,700.2ZM2173.82,555.62a240.46,240.46,0,0,0-15.93-87.5,215.88,215.88,0,0,0-114.67-121q-40.12-18-87.43-18-48.33,0-87.92,17.5A201.24,201.24,0,0,0,1800,395a228.11,228.11,0,0,0-44.22,71.56q-15.93,40.67-15.94,87v2.06a240.41,240.41,0,0,0,15.94,87.52,217.25,217.25,0,0,0,114.16,121q39.58,18,87.94,18,47.3,0,87.4-17.5a199.51,199.51,0,0,0,68.39-48.39,228.07,228.07,0,0,0,44.24-71.54q15.93-40.66,15.93-87Z"/><path class="cls-1" d="M2981.82,798a195.5,195.5,0,0,1-54.4,70q-34.87,28.32-83.2,43.22t-107,14.92a477.46,477.46,0,0,1-161.7-28.31q-79.32-28.3-144.21-87L2525,698.58q49.42,40.17,101.45,63.86t113.81,23.68q49.44,0,76.74-18t27.3-49.92v-2.06q0-15.42-5.68-27.27T2817,666.75q-16-10.29-44.26-20.58t-73.61-21.61q-54.57-13.38-98.83-29.84t-75.16-40.66a164.25,164.25,0,0,1-47.87-60.2q-17-36-17-89.53v-2.06q0-49.39,18.46-89a202.84,202.84,0,0,1,51.82-68.44q33.34-28.8,79.61-44.25t101.86-15.44q79.3,0,145.75,23.69a422.74,422.74,0,0,1,122,67.94l-82.39,119.44q-48.42-33-94.76-52T2710,325.12q-46.35,0-69.51,18t-23.17,44.77v2q0,17.51,6.68,30.38t24.21,23.15q17.48,10.29,47.86,19.55t76.7,21.61q54.55,14.42,97.28,32.42t72.06,43.22a164.91,164.91,0,0,1,44.27,59.17q14.92,34,14.94,81.3v2.06Q3001.32,756.35,2981.82,798Z"/><path class="cls-1" d="M323.29,1290.91a120.34,120.34,0,0,1-23,14.31,119,119,0,0,1-27.35,9,164.94,164.94,0,0,1-33.32,3.08,131.27,131.27,0,0,1-51.8-10.14A125,125,0,0,1,119.37,1238a133.56,133.56,0,0,1-9.78-51.07v-.72a132.18,132.18,0,0,1,9.78-50.89,130.63,130.63,0,0,1,27.16-41.66,125.91,125.91,0,0,1,41.65-28.25q24.27-10.32,53.61-10.32a167.86,167.86,0,0,1,32.42,2.9,135.75,135.75,0,0,1,26.62,8,115.79,115.79,0,0,1,22.09,12.32,149.46,149.46,0,0,1,18.84,15.94l-35.5,40.93a134,134,0,0,0-30.24-21q-15.4-7.61-34.59-7.61a70.7,70.7,0,0,0-29.52,6.16,69.93,69.93,0,0,0-23.36,17,79.56,79.56,0,0,0-15.22,25.18,85.53,85.53,0,0,0-5.43,30.6v.73a87,87,0,0,0,5.43,30.78,80.86,80.86,0,0,0,15,25.36,69.77,69.77,0,0,0,53.07,23.54q21.73,0,36.76-8a142.49,142.49,0,0,0,29.88-21.73l35.5,35.86A184,184,0,0,1,323.29,1290.91Z"/><path class="cls-1" d="M614.49,1313l-54.33-81.14H516.34V1313H460.56V1059.46h115.9q45.27,0,70.45,22.1t25.17,61.57v.73q0,30.78-15,50.16t-39.3,28.44L679.69,1313Zm1.09-167q0-18.1-11.59-27.16t-32.24-9.06H516.34v72.8h56.5q20.64,0,31.69-9.78t11.05-26.07Z"/><path class="cls-1" d="M794.87,1313V1059.46H985.75v49.63H849.92v51.43H969.45v49.62H849.92v53.24H987.56V1313Z"/><path class="cls-1" d="M1298.69,1313l-23.18-56.87H1168.3L1145.12,1313h-56.87l108.66-255.36h51.43L1357,1313Zm-76.79-188.35-33.68,82.22h67.37Z"/><path class="cls-1" d="M1583.38,1110.9V1313H1527.6V1110.9h-77.15v-51.44h210.08v51.44Z"/><path class="cls-1" d="M1778.24,1313V1059.46H1834V1313Z"/><path class="cls-1" d="M2218,1237.12a129.72,129.72,0,0,1-70.82,69.91q-24.81,10.32-54.14,10.32T2039,1307a133.89,133.89,0,0,1-42.56-27.89,124.76,124.76,0,0,1-27.89-41.29,130.1,130.1,0,0,1-10-50.89v-.72a128.09,128.09,0,0,1,10.14-50.89,129.66,129.66,0,0,1,70.81-69.91q24.81-10.32,54.15-10.32t54,10.32a134.28,134.28,0,0,1,42.56,27.89,125,125,0,0,1,27.89,41.29,130.13,130.13,0,0,1,10,50.89v.73A128.22,128.22,0,0,1,2218,1237.12Zm-48.18-50.88a84.51,84.51,0,0,0-5.61-30.79,75.95,75.95,0,0,0-40.39-42.56,74.39,74.39,0,0,0-30.78-6.34,75.88,75.88,0,0,0-31,6.16,70.92,70.92,0,0,0-23.91,17,80.27,80.27,0,0,0-15.57,25.18,82.88,82.88,0,0,0-5.62,30.6v.73a84.26,84.26,0,0,0,5.62,30.78,76.36,76.36,0,0,0,40.2,42.56,73.9,73.9,0,0,0,31,6.34,76.17,76.17,0,0,0,30.79-6.16,70.4,70.4,0,0,0,24.08-17,80.43,80.43,0,0,0,15.58-25.17,83.1,83.1,0,0,0,5.61-30.61Z"/><path class="cls-1" d="M2528,1313l-122.79-161.18V1313h-55.05V1059.46h51.43l118.8,156.11V1059.46h55.06V1313Z"/><path class="cls-1" d="M2885.17,1271.53a68.63,68.63,0,0,1-19.07,24.63,85.78,85.78,0,0,1-29.2,15.22,127.23,127.23,0,0,1-37.61,5.25,167.88,167.88,0,0,1-56.87-10,150.49,150.49,0,0,1-50.71-30.61l33-39.48a165.13,165.13,0,0,0,35.68,22.46,95.28,95.28,0,0,0,40,8.33q17.39,0,27-6.34t9.59-17.57v-.72a22,22,0,0,0-2-9.6q-2-4.16-7.63-7.79a80.49,80.49,0,0,0-15.62-7.24q-10-3.61-26-7.61a313.36,313.36,0,0,1-34.87-10.5,98,98,0,0,1-26.51-14.31,57.78,57.78,0,0,1-16.89-21.19q-6-12.68-6-31.51v-.72a73.64,73.64,0,0,1,6.47-31.33,71.29,71.29,0,0,1,18.18-24.09,81.64,81.64,0,0,1,27.93-15.57,112,112,0,0,1,35.8-5.44q27.89,0,51.25,8.33a148.87,148.87,0,0,1,42.92,23.91l-29,42a184.16,184.16,0,0,0-33.32-18.29,85.26,85.26,0,0,0-32.6-6.7q-16.29,0-24.45,6.34t-8.14,15.76v.72a22.75,22.75,0,0,0,2.36,10.69q2.36,4.53,8.53,8.15a81,81,0,0,0,16.89,6.88q10.71,3.25,27.05,7.6a261.6,261.6,0,0,1,34.32,11.41,96,96,0,0,1,25.43,15.22,58.11,58.11,0,0,1,15.61,20.82q5.27,12,5.27,28.62v.72Q2892,1256.87,2885.17,1271.53Z"/><path d="M253.16,701.31c-15.4-8.39-3-26.74.38-32.06s20.61-16.23-11.08-90.56S199.17,545,140.39,381,94.91,82.55,287.14,12.58c169-61.52,301,122.62,301,122.62s25.09,39.53,43,120.6c0,0-26.42-13.52-33.3-10.15s-5.1,10.65-24.7,16l-1.08.28c-13.12,3.37-23.39,8.05-30,13.61a25.94,25.94,0,0,0-6.74,8.13A55.14,55.14,0,0,1,496.6,255.7c.33,15.51,1,33.51,2.19,54.19,2.86,50.1,3.32,75.41.08,87.78-2.85,10.94-9,11.73-12.63,11.24-7.73-1-11.69-16.54-10.49-41.93,2.9-60.8-36.58-108-12.34-168.39-27.61-11.42-77.26-23.81-145.11-8.33q-4.37,1-8.5,2.12c-1.14.31-2.26.61-3.37.94-4.52,29.2-15.74,70.37-43.6,85.23C238.27,291.65,220,310,212.73,331.3c-6,17.71-4.4,37.46,7.61,57.94,26.46,45.15,82.34,112,87.78,122.25s7.56,15.36.88,22.3-16.68,8.71-21.25,3.44S188.29,422.81,179.06,378.89c6.62,37.82,27.25,74.67,34.1,87.24,12.66,23.28,48.62,77.28,59.8,105.1C311.66,667.54,268.56,709.72,253.16,701.31Z"/></g></g></svg>