<svg xmlns="http://www.w3.org/2000/svg" viewBox="0 0 3001.32 928.12"><defs><style>.cls-1{fill:#eee;}</style></defs><g id="Layer_2" data-name="Layer 2"><g id="Layer_1-2" data-name="Layer 1"><path d="M339.75,472.46c-5.76-3.92-86.78-53.78-107-93.87-6.58-13.08-14.29-27.32-20.06-47.29,7.24-21.3,25.54-39.65,50.1-52.75,27.86-14.86,39.08-56,43.6-85.23,1.11-.33,2.23-.63,3.37-.94-.08,24.91.8,59.33-16.14,75.07-37.33,34.71-55.43,73.71-18.31,110.58s69.6,55.79,77.51,64.33,11.24,12.93,6.56,21.34S345.52,476.38,339.75,472.46Z"/><path d="M589.52,403c-7.79.44-14.85-14-18.23-39.21-2.08-15.56-19.51-49.37-29.24-88.32,6.62-5.56,16.89-10.24,30-13.61l1.08-.28q4.17,18.74,10,41.8c12.28,48.65,17.52,73.42,16.7,86.18C599.07,400.86,593.17,402.82,589.52,403Z"/><path class="cls-1" d="M607.86,853.08a343.74,343.74,0,0,1-65.41,40.61,339.5,339.5,0,0,1-77.76,25.7q-42.24,8.72-94.75,8.73-79.32,0-147.3-28.81T105.16,820.59Q55.66,770.7,27.83,702.78T0,557.69v-2.07q0-77.14,27.83-144.56a371.64,371.64,0,0,1,77.33-118.34q49.5-50.93,118.51-80.27t152.45-29.33q50.47,0,92.18,8.24T544,214a328.28,328.28,0,0,1,62.83,34.95,426,426,0,0,1,53.56,45.25L559.45,410.48q-42.23-38.1-86-59.73t-98.36-21.63q-45.31,0-83.95,17.5A198.66,198.66,0,0,0,224.7,395a225.32,225.32,0,0,0-43.26,71.56Q166,507.25,166,553.56v2.06q0,46.35,15.44,87.52t42.75,72.06a198.94,198.94,0,0,0,65.92,48.91q38.63,18,85,18,61.79,0,104.54-22.65t85-61.8L665.55,799.61A525.16,525.16,0,0,1,607.86,853.08Z"/><path class="cls-1" d="M1328.29,916.12l-65.92-162H957.47l-65.9,162H729.85l309-726h146.27l309,726ZM1109.93,380.33l-95.8,233.79h191.58Z"/><path class="cls-1" d="M2311,700.2a373,373,0,0,1-79.8,118.33q-51,51-121.48,80.27t-153.93,29.32q-83.38,0-153.4-29.32t-121-79.24q-51-49.89-79.26-117.29t-28.32-144.58v-2.07q0-77.14,28.83-144.56a373.36,373.36,0,0,1,79.78-118.34q51-50.93,121.5-80.27t153.93-29.33q83.39,0,153.4,29.33t121,79.24A354.52,354.52,0,0,1,2311.51,409q28.32,67.41,28.31,144.56v2.06Q2339.82,632.81,2311,700.2ZM2173.82,555.62a240.46,240.46,0,0,0-15.93-87.5,215.88,215.88,0,0,0-114.67-121q-40.12-18-87.43-18-48.33,0-87.92,17.5A201.24,201.24,0,0,0,1800,395a228.11,228.11,0,0,0-44.22,71.56q-15.93,40.67-15.94,87v2.06a240.41,240.41,0,0,0,15.94,87.52,217.25,217.25,0,0,0,114.16,121q39.58,18,87.94,18,47.3,0,87.4-17.5a199.51,199.51,0,0,0,68.39-48.39,228.07,228.07,0,0,0,44.24-71.54q15.93-40.66,15.93-87Z"/><path class="cls-1" d="M2981.82,798a195.5,195.5,0,0,1-54.4,70q-34.87,28.32-83.2,43.22t-107,14.92a477.46,477.46,0,0,1-161.7-28.31q-79.32-28.3-144.21-87L2525,698.58q49.42,40.17,101.45,63.86t113.81,23.68q49.44,0,76.74-18t27.3-49.92v-2.06q0-15.42-5.68-27.27T2817,666.75q-16-10.29-44.26-20.58t-73.61-21.61q-54.57-13.38-98.83-29.84t-75.16-40.66a164.25,164.25,0,0,1-47.87-60.2q-17-36-17-89.53v-2.06q0-49.39,18.46-89a202.84,202.84,0,0,1,51.82-68.44q33.34-28.8,79.61-44.25t101.86-15.44q79.3,0,145.75,23.69a422.74,422.74,0,0,1,122,67.94l-82.39,119.44q-48.42-33-94.76-52T2710,325.12q-46.35,0-69.51,18t-23.17,44.77v2q0,17.51,6.68,30.38t24.21,23.15q17.48,10.29,47.86,19.55t76.7,21.61q54.55,14.42,97.28,32.42t72.06,43.22a164.91,164.91,0,0,1,44.27,59.17q14.92,34,14.94,81.3v2.06Q3001.32,756.35,2981.82,798Z"/><path d="M253.16,701.31c-15.4-8.39-3-26.74.38-32.06s20.61-16.23-11.08-90.56S199.17,545,140.39,381,94.91,82.55,287.14,12.58c169-61.52,301,122.62,301,122.62s25.09,39.53,43,120.6c0,0-26.42-13.52-33.3-10.15s-5.1,10.65-24.7,16l-1.08.28c-13.12,3.37-23.39,8.05-30,13.61a25.94,25.94,0,0,0-6.74,8.13A55.14,55.14,0,0,1,496.6,255.7c.33,15.51,1,33.51,2.19,54.19,2.86,50.1,3.32,75.41.08,87.78-2.85,10.94-9,11.73-12.63,11.24-7.73-1-11.69-16.54-10.49-41.93,2.9-60.8-36.58-108-12.34-168.39-27.61-11.42-77.26-23.81-145.11-8.33q-4.37,1-8.5,2.12c-1.14.31-2.26.61-3.37.94-4.52,29.2-15.74,70.37-43.6,85.23C238.27,291.65,220,310,212.73,331.3c-6,17.71-4.4,37.46,7.61,57.94,26.46,45.15,82.34,112,87.78,122.25s7.56,15.36.88,22.3-16.68,8.71-21.25,3.44S188.29,422.81,179.06,378.89c6.62,37.82,27.25,74.67,34.1,87.24,12.66,23.28,48.62,77.28,59.8,105.1C311.66,667.54,268.56,709.72,253.16,701.31Z"/></g></g></svg>