<svg xmlns="http://www.w3.org/2000/svg" viewBox="0 0 559.15 40.3"><defs><style>.cls-1{fill:#eee;}</style></defs><g id="Layer_2" data-name="Layer 2"><g id="Layer_1-2" data-name="Layer 1"><path class="cls-1" d="M66.65,39.76l-2.86-7H50.55l-2.87,7h-7L54.08,8.22h6.35L73.85,39.76ZM57.17,16.5,53,26.65h8.32Z"/><path class="cls-1" d="M118.27,30.39A16.07,16.07,0,0,1,109.53,39a17.3,17.3,0,0,1-6.69,1.28A17.09,17.09,0,0,1,96.17,39a16.66,16.66,0,0,1-5.25-3.44,15.44,15.44,0,0,1-3.45-5.1,16.07,16.07,0,0,1-1.23-6.29V24.1a15.73,15.73,0,0,1,1.26-6.28,15.9,15.9,0,0,1,8.74-8.63,18,18,0,0,1,13.35,0,16.54,16.54,0,0,1,5.26,3.44,15.41,15.41,0,0,1,3.44,5.1A16.06,16.06,0,0,1,119.52,24v.09A15.73,15.73,0,0,1,118.27,30.39Zm-6-6.29a10.46,10.46,0,0,0-.69-3.8,9.4,9.4,0,0,0-2-3.13,9.53,9.53,0,0,0-3-2.12,9,9,0,0,0-3.8-.79A9.52,9.52,0,0,0,99,15a8.8,8.8,0,0,0-3,2.11,9.86,9.86,0,0,0-1.92,3.1,10.32,10.32,0,0,0-.7,3.78v.09a10.52,10.52,0,0,0,.7,3.81,9.5,9.5,0,0,0,2,3.13,9.62,9.62,0,0,0,3,2.12,9.2,9.2,0,0,0,3.83.78,9.35,9.35,0,0,0,3.8-.76,8.66,8.66,0,0,0,3-2.1A10,10,0,0,0,111.63,28a10.24,10.24,0,0,0,.69-3.78Z"/><path class="cls-1" d="M156.39,34.64a8.52,8.52,0,0,1-2.36,3,10.63,10.63,0,0,1-3.6,1.88,15.79,15.79,0,0,1-4.65.65,20.68,20.68,0,0,1-7-1.23,18.45,18.45,0,0,1-6.26-3.78l4.07-4.88a20.38,20.38,0,0,0,4.4,2.77,11.73,11.73,0,0,0,4.95,1,6,6,0,0,0,3.33-.78,2.45,2.45,0,0,0,1.18-2.17v-.09a2.73,2.73,0,0,0-.24-1.18,2.49,2.49,0,0,0-.95-1,10.37,10.37,0,0,0-1.92-.89c-.83-.3-1.9-.61-3.21-.94a39.05,39.05,0,0,1-4.31-1.3A11.91,11.91,0,0,1,136.53,24a7.23,7.23,0,0,1-2.09-2.62,9.12,9.12,0,0,1-.74-3.89v-.09a9.14,9.14,0,0,1,.8-3.87,8.87,8.87,0,0,1,2.25-3,10.14,10.14,0,0,1,3.45-1.92A13.76,13.76,0,0,1,144.62,8,18.68,18.68,0,0,1,151,9a18.29,18.29,0,0,1,5.3,3l-3.58,5.19a22.56,22.56,0,0,0-4.12-2.26,10.52,10.52,0,0,0-4-.83,4.82,4.82,0,0,0-3,.79,2.38,2.38,0,0,0-1,1.94v.09a2.86,2.86,0,0,0,.29,1.32,2.73,2.73,0,0,0,1.06,1,9.94,9.94,0,0,0,2.08.85c.89.27,2,.58,3.34.94a29.64,29.64,0,0,1,4.24,1.41,11.76,11.76,0,0,1,3.14,1.87,7.21,7.21,0,0,1,1.93,2.58,8.76,8.76,0,0,1,.65,3.53v.09A9.75,9.75,0,0,1,156.39,34.64Z"/><path class="cls-1" d="M241.91,37a14.72,14.72,0,0,1-2.84,1.77,15.24,15.24,0,0,1-3.38,1.12,20.53,20.53,0,0,1-4.11.38,16.13,16.13,0,0,1-6.4-1.26,15.46,15.46,0,0,1-8.46-8.54,16.6,16.6,0,0,1-1.2-6.31V24.1a16.21,16.21,0,0,1,4.56-11.43,15.68,15.68,0,0,1,5.14-3.48,16.77,16.77,0,0,1,6.62-1.28,20.61,20.61,0,0,1,4,.36,17.42,17.42,0,0,1,3.29,1,14.65,14.65,0,0,1,2.72,1.52,19.25,19.25,0,0,1,2.33,2l-4.38,5.06a16.64,16.64,0,0,0-3.74-2.6,9.6,9.6,0,0,0-4.27-.94,8.87,8.87,0,0,0-3.65.76,8.63,8.63,0,0,0-2.88,2.11,9.76,9.76,0,0,0-1.88,3.1,10.52,10.52,0,0,0-.67,3.78v.09a10.72,10.72,0,0,0,.67,3.81A10.11,10.11,0,0,0,225.25,31a8.6,8.6,0,0,0,6.55,2.9,9.55,9.55,0,0,0,4.54-1A17.73,17.73,0,0,0,240,30.28l4.38,4.43A22.47,22.47,0,0,1,241.91,37Z"/><path class="cls-1" d="M277.87,39.76l-6.71-10h-5.41v10h-6.89V8.45h14.32q5.58,0,8.7,2.73a9.59,9.59,0,0,1,3.11,7.6v.09a9.82,9.82,0,0,1-1.86,6.2,10.87,10.87,0,0,1-4.85,3.51l7.64,11.18ZM278,19.14a4,4,0,0,0-1.43-3.36,6.39,6.39,0,0,0-4-1.11h-6.84v9h7a5.74,5.74,0,0,0,3.91-1.21A4.1,4.1,0,0,0,278,19.23Z"/><path class="cls-1" d="M300.15,39.76V8.45h23.57v6.13H307v6.35h14.76v6.13H307v6.57h17v6.13Z"/><path class="cls-1" d="M362.37,39.76l-2.86-7H346.27l-2.86,7h-7L349.8,8.22h6.35l13.42,31.54ZM352.89,16.5l-4.16,10.15h8.32Z"/><path class="cls-1" d="M397.53,14.8v25h-6.89v-25h-9.53V8.45h25.95V14.8Z"/><path class="cls-1" d="M421.6,39.76V8.45h6.89V39.76Z"/><path class="cls-1" d="M475.9,30.39A16.07,16.07,0,0,1,467.16,39a17.3,17.3,0,0,1-6.69,1.28A17.09,17.09,0,0,1,453.8,39a16.66,16.66,0,0,1-5.25-3.44,15.44,15.44,0,0,1-3.45-5.1,16.07,16.07,0,0,1-1.23-6.29V24.1a15.89,15.89,0,0,1,1.25-6.28,16.52,16.52,0,0,1,3.47-5.15,16.29,16.29,0,0,1,5.28-3.48,18,18,0,0,1,13.35,0,16.54,16.54,0,0,1,5.26,3.44,15.41,15.41,0,0,1,3.44,5.1A16.06,16.06,0,0,1,477.15,24v.09A15.73,15.73,0,0,1,475.9,30.39ZM470,24.1a10.46,10.46,0,0,0-.69-3.8,9.4,9.4,0,0,0-2-3.13,9.53,9.53,0,0,0-3-2.12,9,9,0,0,0-3.8-.79,9.52,9.52,0,0,0-3.83.76,8.8,8.8,0,0,0-2.95,2.11,9.86,9.86,0,0,0-1.92,3.1,10.32,10.32,0,0,0-.7,3.78v.09a10.52,10.52,0,0,0,.7,3.81,9.45,9.45,0,0,0,5,5.25,9.2,9.2,0,0,0,3.83.78,9.35,9.35,0,0,0,3.8-.76,8.53,8.53,0,0,0,3-2.1A9.82,9.82,0,0,0,469.26,28a10.24,10.24,0,0,0,.69-3.78Z"/><path class="cls-1" d="M514.19,39.76,499,19.85V39.76h-6.8V8.45h6.35l14.67,19.28V8.45h6.8V39.76Z"/><path class="cls-1" d="M558.3,34.64a8.5,8.5,0,0,1-2.35,3,10.59,10.59,0,0,1-3.61,1.88,15.72,15.72,0,0,1-4.64.65,20.78,20.78,0,0,1-7-1.23,18.65,18.65,0,0,1-6.26-3.78l4.07-4.88a20.2,20.2,0,0,0,4.41,2.77,11.69,11.69,0,0,0,4.94,1,6,6,0,0,0,3.33-.78,2.46,2.46,0,0,0,1.19-2.17v-.09a2.73,2.73,0,0,0-.25-1.18,2.46,2.46,0,0,0-.94-1,10.51,10.51,0,0,0-1.93-.89A33,33,0,0,0,546,27.1a38.85,38.85,0,0,1-4.3-1.3A12,12,0,0,1,538.44,24a7.21,7.21,0,0,1-2.08-2.62,9,9,0,0,1-.74-3.89v-.09a9,9,0,0,1,.8-3.87,8.84,8.84,0,0,1,2.24-3,10.14,10.14,0,0,1,3.45-1.92A13.8,13.8,0,0,1,546.53,8a18.6,18.6,0,0,1,6.33,1,18.17,18.17,0,0,1,5.3,3l-3.58,5.19a22.83,22.83,0,0,0-4.11-2.26,10.53,10.53,0,0,0-4-.83,4.82,4.82,0,0,0-3,.79,2.37,2.37,0,0,0-1,1.94v.09a2.74,2.74,0,0,0,.29,1.32,2.63,2.63,0,0,0,1,1,10.06,10.06,0,0,0,2.09.85c.88.27,2,.58,3.34.94a30.07,30.07,0,0,1,4.24,1.41,11.92,11.92,0,0,1,3.14,1.87,7.33,7.33,0,0,1,1.93,2.58,8.76,8.76,0,0,1,.65,3.53v.09A9.6,9.6,0,0,1,558.3,34.64Z"/><path d="M14.75,20.51c-.25-.17-3.77-2.33-4.64-4.07a10.8,10.8,0,0,1-.87-2.06,4.36,4.36,0,0,1,2.17-2.29c1.21-.64,1.7-2.43,1.89-3.7l.15,0c0,1.08,0,2.58-.7,3.26-1.62,1.51-2.41,3.2-.79,4.8s3,2.43,3.36,2.8.49.56.29.92S15,20.68,14.75,20.51Z"/><path d="M25.6,17.5c-.34,0-.65-.61-.8-1.7-.09-.68-.84-2.15-1.27-3.84a3.48,3.48,0,0,1,1.31-.59h0c.13.54.27,1.14.44,1.81A16.46,16.46,0,0,1,26,16.92C26,17.4,25.75,17.49,25.6,17.5Z"/><path class="cls-1" d="M26.39,37a14.87,14.87,0,0,1-2.84,1.76,15.16,15.16,0,0,1-3.37,1.12,20.71,20.71,0,0,1-4.12.38,16.26,16.26,0,0,1-6.39-1.25,15.88,15.88,0,0,1-5.1-3.42,15.39,15.39,0,0,1-3.36-5.12A16.33,16.33,0,0,1,0,24.21v-.09a16.18,16.18,0,0,1,1.21-6.27,15.89,15.89,0,0,1,3.36-5.14A15.45,15.45,0,0,1,9.71,9.22,16.94,16.94,0,0,1,16.33,8a20.58,20.58,0,0,1,4,.36,16.52,16.52,0,0,1,3.29,1,14.48,14.48,0,0,1,2.73,1.52,18.21,18.21,0,0,1,2.32,2l-4.38,5.05a16.53,16.53,0,0,0-3.73-2.59,9.46,9.46,0,0,0-4.27-.94,8.65,8.65,0,0,0-6.53,2.86,9.52,9.52,0,0,0-1.88,3.11A10.42,10.42,0,0,0,7.21,24v.09a10.62,10.62,0,0,0,.67,3.8,9.68,9.68,0,0,0,1.85,3.13,8.71,8.71,0,0,0,2.87,2.13,8.59,8.59,0,0,0,3.69.78,9.51,9.51,0,0,0,4.53-1,17.37,17.37,0,0,0,3.69-2.68l4.39,4.43A23.55,23.55,0,0,1,26.39,37Z"/><path d="M11,30.45c-.67-.37-.13-1.16,0-1.39s.89-.71-.48-3.93S8.65,23.66,6.1,16.54s-2-13,6.37-16C19.8-2.12,25.54,5.87,25.54,5.87a18,18,0,0,1,1.86,5.24s-1.14-.59-1.44-.44-.22.46-1.08.69h0a3.48,3.48,0,0,0-1.31.59,1.15,1.15,0,0,0-.29.35,2.39,2.39,0,0,1-1.68-1.21c0,.68,0,1.46.1,2.35a16.83,16.83,0,0,1,0,3.82c-.12.47-.39.51-.55.48-.33,0-.51-.71-.45-1.82.12-2.64-1.59-4.68-.54-7.31a10.39,10.39,0,0,0-6.3-.36l-.37.09-.15,0c-.19,1.27-.68,3.06-1.89,3.7a4.36,4.36,0,0,0-2.17,2.29,2.94,2.94,0,0,0,.33,2.52c1.15,2,3.57,4.86,3.81,5.31s.33.66,0,1-.73.37-.93.15-4.31-5-4.72-6.88a13.51,13.51,0,0,0,1.48,3.79c.55,1,2.12,3.35,2.6,4.56C13.53,29,11.66,30.81,11,30.45Z"/></g></g></svg>