<svg xmlns="http://www.w3.org/2000/svg" viewBox="0 0 665.55 928.12"><defs><style>.cls-1{fill:#eee;}</style></defs><g id="Layer_2" data-name="Layer 2"><g id="Layer_1-2" data-name="Layer 1"><path d="M339.75,472.46c-5.76-3.92-86.78-53.78-107-93.87-6.58-13.08-14.29-27.32-20.06-47.29,7.24-21.3,25.54-39.65,50.1-52.75,27.86-14.86,39.08-56,43.6-85.23,1.11-.33,2.23-.63,3.37-.94-.08,24.91.8,59.33-16.14,75.07-37.33,34.71-55.43,73.71-18.31,110.58s69.6,55.79,77.51,64.33,11.24,12.93,6.56,21.34S345.52,476.38,339.75,472.46Z"/><path d="M589.52,403c-7.79.44-14.85-14-18.23-39.21-2.08-15.56-19.51-49.37-29.24-88.32,6.62-5.56,16.89-10.24,30-13.61l1.08-.28q4.17,18.74,10,41.8c12.28,48.65,17.52,73.42,16.7,86.18C599.07,400.86,593.17,402.82,589.52,403Z"/><path class="cls-1" d="M607.86,853.08a343.74,343.74,0,0,1-65.41,40.61,339.5,339.5,0,0,1-77.76,25.7q-42.24,8.72-94.75,8.73-79.32,0-147.3-28.81T105.16,820.59Q55.66,770.7,27.83,702.78T0,557.69v-2.07q0-77.14,27.83-144.56a371.64,371.64,0,0,1,77.33-118.34q49.5-50.93,118.51-80.27t152.45-29.33q50.47,0,92.18,8.24T544,214a328.28,328.28,0,0,1,62.83,34.95,426,426,0,0,1,53.56,45.25L559.45,410.48q-42.23-38.1-86-59.73t-98.36-21.63q-45.31,0-83.95,17.5A198.66,198.66,0,0,0,224.7,395a225.32,225.32,0,0,0-43.26,71.56Q166,507.25,166,553.56v2.06q0,46.35,15.44,87.52t42.75,72.06a198.94,198.94,0,0,0,65.92,48.91q38.63,18,85,18,61.79,0,104.54-22.65t85-61.8L665.55,799.61A525.16,525.16,0,0,1,607.86,853.08Z"/><path d="M253.16,701.31c-15.4-8.39-3-26.74.38-32.06s20.61-16.23-11.08-90.56S199.17,545,140.39,381,94.91,82.55,287.14,12.58c169-61.52,301,122.62,301,122.62s25.09,39.53,43,120.6c0,0-26.42-13.52-33.3-10.15s-5.1,10.65-24.7,16l-1.08.28c-13.12,3.37-23.39,8.05-30,13.61a25.94,25.94,0,0,0-6.74,8.13A55.14,55.14,0,0,1,496.6,255.7c.33,15.51,1,33.51,2.19,54.19,2.86,50.1,3.32,75.41.08,87.78-2.85,10.94-9,11.73-12.63,11.24-7.73-1-11.69-16.54-10.49-41.93,2.9-60.8-36.58-108-12.34-168.39-27.61-11.42-77.26-23.81-145.11-8.33q-4.37,1-8.5,2.12c-1.14.31-2.26.61-3.37.94-4.52,29.2-15.74,70.37-43.6,85.23C238.27,291.65,220,310,212.73,331.3c-6,17.71-4.4,37.46,7.61,57.94,26.46,45.15,82.34,112,87.78,122.25s7.56,15.36.88,22.3-16.68,8.71-21.25,3.44S188.29,422.81,179.06,378.89c6.62,37.82,27.25,74.67,34.1,87.24,12.66,23.28,48.62,77.28,59.8,105.1C311.66,667.54,268.56,709.72,253.16,701.31Z"/></g></g></svg>